<svg width="200" height="50" viewBox="0 0 200 50" fill="none" xmlns="http://www.w3.org/2000/svg">
<g clip-path="url(#clip0_2_1416)">
<path d="M0 0H200V50H0V0Z" fill="#FF8EBF"/>
<path d="M47.2882 11.1501C47.2882 12.6296 48.4698 13.8133 49.9891 13.8133C51.4661 13.8133 52.69 12.6296 52.69 11.1501C52.69 9.62822 51.4661 8.4023 49.9891 8.4023C48.4698 8.4023 47.2882 9.62822 47.2882 11.1501ZM45.3891 11.1501C45.3891 8.57139 47.4148 6.5 49.9891 6.5C52.5212 6.5 54.6313 8.57139 54.6313 11.1501C54.6313 13.6865 52.5212 15.7578 49.9891 15.7578C47.4148 15.7578 45.3891 13.6865 45.3891 11.1501ZM38.2991 9.79731C38.2147 10.3891 38.0459 11.911 38.0459 12.7987C38.0459 15.0392 38.0459 18.5901 38.0459 20.6615C38.0459 24.0857 38.0459 37.7822 38.0459 40.8259C38.0459 43.0241 36.9909 44.1655 34.4166 44.1655C32.6441 44.1655 30.1542 44.0809 28.4239 43.8695L28.1285 40.53C29.9854 40.8681 31.8844 40.995 33.0239 40.995C34.1633 40.995 34.6276 40.53 34.6276 39.3886C34.6698 37.1058 34.6698 22.6484 34.6698 20.6615C34.6698 19.2242 34.6698 15.0392 34.6698 12.7987C34.6698 11.8687 34.501 10.4314 34.3744 9.79731H38.2991ZM19.3505 16.8992C20.5321 17.0683 21.5872 17.1529 22.8954 17.1529C25.3853 17.1529 46.6973 17.1529 49.2294 17.1529C50.2001 17.1529 51.5928 17.0683 52.6478 16.9415V20.4502C51.5506 20.3656 50.2845 20.3233 49.2717 20.3233C46.7395 20.3233 25.5119 20.3233 22.9376 20.3233C21.6294 20.3233 20.4477 20.3656 19.3505 20.4924V16.8992ZM29.0569 26.8757C27.2422 30.4689 23.3174 35.8799 20.9119 38.4586L18 36.4717C20.8275 33.8931 24.4147 28.8625 26.0606 25.4384L29.0569 26.8757ZM46.6551 25.4384C48.934 28.1439 52.268 33.4281 53.9561 36.514L50.8753 38.2472C49.1872 34.9076 46.0221 29.6657 43.7854 27.0025L46.6551 25.4384Z" fill="black"/>
<path d="M61.9322 24.0434C63.2405 24.1702 65.435 24.297 67.8405 24.297C70.9213 24.297 87.8442 24.297 90.9672 24.297C93.0773 24.297 94.5543 24.1279 95.525 24.0434V28.1862C94.6388 28.1439 92.8663 28.0171 91.0094 28.0171C87.802 28.0171 70.9635 28.0171 67.8405 28.0171C65.5194 28.0171 63.2827 28.1016 61.9322 28.1862V24.0434Z" fill="black"/>
<path d="M117.386 22.9866C122.787 26.1571 129.709 31.0185 133.887 34.4003L131.397 37.3595C127.514 33.8085 120.298 28.6089 115.064 25.3539L117.386 22.9866ZM136.672 15.2928C136.334 15.8847 135.912 16.8569 135.701 17.5333C134.435 21.8452 131.776 27.4675 128.063 32.033C124.222 36.7676 118.736 41.2909 110.718 44.25L107.721 41.5868C115.571 39.2195 121.31 34.7385 125.109 30.2153C128.358 26.3261 131.017 20.9574 131.987 17.026H116.373L117.723 13.9824H131.143C132.283 13.9824 133.211 13.8555 133.887 13.6019L136.672 15.2928ZM122.45 9.16321C121.732 10.2623 120.973 11.6996 120.551 12.5028C118.061 17.1529 113.292 23.5361 106.54 28.1862L103.754 26.0302C110.971 21.507 115.318 15.166 117.259 11.2769C117.681 10.5582 118.356 9.03639 118.609 7.93729L122.45 9.16321Z" fill="black"/>
<path d="M164.145 41.46C164.314 40.8259 164.441 39.9381 164.441 39.0927C164.441 37.1481 164.441 16.4342 164.441 13.771C164.441 12.1646 164.23 10.981 164.23 10.6428H168.112C168.07 10.981 167.901 12.2069 167.901 13.8133C167.901 16.4342 167.901 36.8945 167.901 38.1627C171.826 36.3872 177.017 32.5403 180.224 27.7634L182.25 30.6803C178.578 35.6263 172.755 39.9381 167.859 42.39C167.142 42.7282 166.72 43.1086 166.382 43.32L164.145 41.46ZM144.817 41.2909C148.404 38.7545 150.894 34.9922 152.16 30.8917C153.426 27.0025 153.426 18.5901 153.426 13.8555C153.426 12.6296 153.342 11.6996 153.131 10.8119H157.013C156.971 11.2769 156.802 12.5873 156.802 13.8133C156.802 18.5056 156.676 27.5943 155.536 31.8217C154.27 36.3449 151.569 40.4454 148.024 43.4045L144.817 41.2909Z" fill="black"/>
</g>
<defs>
<clipPath id="clip0_2_1416">
<rect width="200" height="50" rx="4" fill="white"/>
</clipPath>
</defs>
</svg>
